{
  "source": "C:\\Users\\Peter\\Desktop\\stuff\\MIUN\\quantitative_research\\video_compression\\videos\\BVI-HD\\BVI-HD_CDVL_videos\\ORIG\\Bookcase_1920x1080_60fps.mp4",
  "output": "C:\\Users\\Peter\\Desktop\\stuff\\MIUN\\quantitative_research\\video_compression\\compressed_videos\\BVI-HD\\h264\\2.5\\Bookcase_1920x1080_60fps_h264.mp4",
  "codec": "h264",
  "ok": "Input #0, mov,mp4,m4a,3gp,3g2,mj2, from 'C:\\Users\\Peter\\Desktop\\stuff\\MIUN\\quantitative_research\\video_compression\\videos\\BVI-HD\\BVI-HD_CDVL_videos\\ORIG\\Bookcase_1920x1080_60fps.mp4':\n  Metadata:\n    major_brand     : isom\n    minor_version   : 512\n    compatible_brands: isomiso2avc1mp41\n    encoder         : Lavf54.28.101\n  Duration: 00:00:05.00, start: 0.000000, bitrate: 336321 kb/s\n  Stream #0:0[0x1](und): Video: h264 (High 4:4:4 Predictive) (avc1 / 0x31637661), yuv420p(progressive), 1920x1080, 336316 kb/s, 60 fps, 60 tbr, 60 tbn (default)\n    Metadata:\n      handler_name    : VideoHandler\n      vendor_id       : [0][0][0][0]\n[out#0/mp4 @ 00000281296ad640] Codec AVOption b:a (set bitrate (in bits/s)) has not been used for any stream. The most likely reason is either wrong type (e.g. a video option with no video streams) or that it is a private option of some decoder which was not actually used for any stream.\nStream mapping:\n  Stream #0:0 -> #0:0 (h264 (native) -> h264 (libx264))\nPress [q] to stop, [?] for help\n[libx264 @ 00000281296aa9c0] using cpu capabilities: MMX2 SSE2Fast SSSE3 SSE4.2 AVX FMA3 BMI2 AVX2\n[libx264 @ 00000281296aa9c0] profile High, level 5.0, 4:2:0, 8-bit\n[libx264 @ 00000281296aa9c0] 264 - core 165 r3222 b35605a - H.264/MPEG-4 AVC codec - Copyleft 2003-2025 - http://www.videolan.org/x264.html - options: cabac=1 ref=5 deblock=1:0:0 analyse=0x3:0x113 me=hex subme=8 psy=1 psy_rd=1.00:0.00 mixed_ref=1 me_range=16 chroma_me=1 trellis=2 8x8dct=1 cqm=0 deadzone=21,11 fast_pskip=1 chroma_qp_offset=-2 threads=18 lookahead_threads=3 sliced_threads=0 nr=0 decimate=1 interlaced=0 bluray_compat=0 constrained_intra=0 bframes=3 b_pyramid=2 b_adapt=1 b_bias=0 direct=3 weightb=1 open_gop=0 weightp=2 keyint=250 keyint_min=25 scenecut=40 intra_refresh=0 rc_lookahead=50 rc=cbr mbtree=1 bitrate=2500 ratetol=1.0 qcomp=0.60 qpmin=0 qpmax=69 qpstep=4 vbv_maxrate=2500 vbv_bufsize=2500 nal_hrd=none filler=0 ip_ratio=1.40 aq=1:1.00\nOutput #0, mp4, to 'C:\\Users\\Peter\\Desktop\\stuff\\MIUN\\quantitative_research\\video_compression\\compressed_videos\\BVI-HD\\h264\\2.5\\Bookcase_1920x1080_60fps_h264.mp4':\n  Metadata:\n    major_brand     : isom\n    minor_version   : 512\n    compatible_brands: isomiso2avc1mp41\n    encoder         : Lavf62.3.100\n  Stream #0:0(und): Video: h264 (avc1 / 0x31637661), yuv420p(tv, progressive), 1920x1080, q=2-31, 2500 kb/s, 60 fps, 15360 tbn (default)\n    Metadata:\n      encoder         : Lavc62.11.100 libx264\n      handler_name    : VideoHandler\n      vendor_id       : [0][0][0][0]\n    Side data:\n      cpb: bitrate max/min/avg: 2500000/0/2500000 buffer size: 2500000 vbv_delay: N/A\nframe=    0 fps=0.0 q=0.0 size=       0KiB time=N/A bitrate=N/A speed=N/A elapsed=0:00:00.51    \nframe=    0 fps=0.0 q=0.0 size=       0KiB time=N/A bitrate=N/A speed=N/A elapsed=0:00:01.09    \nframe=   12 fps=7.5 q=37.0 size=       0KiB time=00:00:00.16 bitrate=   2.3kbits/s speed=0.104x elapsed=0:00:01.60    \nframe=   41 fps= 19 q=42.0 size=       0KiB time=00:00:00.61 bitrate=   0.6kbits/s speed=0.288x elapsed=0:00:02.14    \nframe=   74 fps= 27 q=37.0 size=     256KiB time=00:00:01.13 bitrate=1850.8kbits/s speed=0.417x elapsed=0:00:02.71    \nframe=  106 fps= 32 q=37.0 size=     256KiB time=00:00:01.66 bitrate=1258.5kbits/s speed=0.498x elapsed=0:00:03.34    \nframe=  138 fps= 35 q=36.0 size=     256KiB time=00:00:02.20 bitrate= 953.4kbits/s speed=0.564x elapsed=0:00:03.89    \nframe=  168 fps= 38 q=37.0 size=     512KiB time=00:00:02.75 bitrate=1525.3kbits/s speed=0.615x elapsed=0:00:04.46    \nframe=  197 fps= 39 q=38.0 size=     512KiB time=00:00:03.25 bitrate=1290.7kbits/s speed=0.646x elapsed=0:00:05.02    \nframe=  233 fps= 42 q=38.0 size=     768KiB time=00:00:03.85 bitrate=1634.2kbits/s speed=0.694x elapsed=0:00:05.54    \nframe=  262 fps= 43 q=42.0 size=    1024KiB time=00:00:04.33 bitrate=1935.9kbits/s speed=0.715x elapsed=0:00:06.06    \n[mp4 @ 0000028129699980] Starting second pass: moving the moov atom to the beginning of the file\n[out#0/mp4 @ 00000281296ad640] video:1299KiB audio:0KiB subtitle:0KiB other streams:0KiB global headers:0KiB muxing overhead: 0.319821%\nframe=  300 fps= 46 q=-1.0 Lsize=    1303KiB time=00:00:04.96 bitrate=2149.8kbits/s speed=0.759x elapsed=0:00:06.54    \n[libx264 @ 00000281296aa9c0] frame I:2     Avg QP:33.83  size: 37856\n[libx264 @ 00000281296aa9c0] frame P:93    Avg QP:36.31  size: 10380\n[libx264 @ 00000281296aa9c0] frame B:205   Avg QP:35.06  size:  1408\n[libx264 @ 00000281296aa9c0] consecutive B-frames:  2.3% 11.3% 25.0% 61.3%\n[libx264 @ 00000281296aa9c0] mb I  I16..4: 37.9% 59.7%  2.4%\n[libx264 @ 00000281296aa9c0] mb P  I16..4:  9.7%  9.7%  0.1%  P16..4: 23.1%  1.9%  1.6%  0.0%  0.0%    skip:53.9%\n[libx264 @ 00000281296aa9c0] mb B  I16..4:  0.2%  0.1%  0.0%  B16..8: 18.8%  0.2%  0.0%  direct: 0.0%  skip:80.7%  L0:29.1% L1:70.8% BI: 0.1%\n[libx264 @ 00000281296aa9c0] 8x8 transform intra:50.4% inter:92.5%\n[libx264 @ 00000281296aa9c0] direct mvs  spatial:95.6% temporal:4.4%\n[libx264 @ 00000281296aa9c0] coded y,uvDC,uvAC intra: 17.7% 34.0% 3.8% inter: 1.9% 1.8% 0.0%\n[libx264 @ 00000281296aa9c0] i16 v,h,dc,p: 57% 25%  3% 14%\n[libx264 @ 00000281296aa9c0] i8 v,h,dc,ddl,ddr,vr,hd,vl,hu: 33% 19% 20%  3%  4%  5%  6%  6%  4%\n[libx264 @ 00000281296aa9c0] i4 v,h,dc,ddl,ddr,vr,hd,vl,hu: 28% 18%  8%  6% 11%  9% 11%  5%  5%\n[libx264 @ 00000281296aa9c0] i8c dc,h,v,p: 44% 23% 25%  8%\n[libx264 @ 00000281296aa9c0] Weighted P-Frames: Y:0.0% UV:0.0%\n[libx264 @ 00000281296aa9c0] ref P L0: 79.4% 15.8%  3.3%  0.8%  0.7%  0.1%\n[libx264 @ 00000281296aa9c0] ref B L0: 94.6%  4.0%  1.1%  0.2%\n[libx264 @ 00000281296aa9c0] ref B L1: 99.1%  0.9%\n[libx264 @ 00000281296aa9c0] kb/s:2127.47\n",
  "seconds": 6.842491149902344,
  "probe_out": {}
}